<svg width="51" height="51" viewBox="0 0 51 51" fill="none" xmlns="http://www.w3.org/2000/svg">
<path d="M18.8838 45.3334C20.6442 45.3334 22.0713 43.9063 22.0713 42.1459C22.0713 40.3855 20.6442 38.9584 18.8838 38.9584C17.1234 38.9584 15.6963 40.3855 15.6963 42.1459C15.6963 43.9063 17.1234 45.3334 18.8838 45.3334Z" fill="#F4F4F4"/>
<path d="M38.25 45.3334C40.0104 45.3334 41.4375 43.9063 41.4375 42.1459C41.4375 40.3855 40.0104 38.9584 38.25 38.9584C36.4896 38.9584 35.0625 40.3855 35.0625 42.1459C35.0625 43.9063 36.4896 45.3334 38.25 45.3334Z" fill="#F4F4F4"/>
<path d="M46.8635 7.60752C46.7317 7.44501 46.5655 7.31372 46.3769 7.22309C46.1883 7.13246 45.9819 7.08474 45.7727 7.08336H16.2777L17.1985 9.91669H43.9169L40.1344 26.9167H18.8844L12.4102 6.41752C12.3402 6.20001 12.2186 6.00266 12.0557 5.84231C11.8929 5.68197 11.6937 5.56339 11.4752 5.49669L5.66685 3.71169C5.48826 3.65681 5.3006 3.63764 5.11459 3.65528C4.92859 3.67293 4.74788 3.72703 4.58278 3.81451C4.24936 3.99119 3.99978 4.29308 3.88894 4.65377C3.7781 5.01447 3.81509 5.40442 3.99176 5.73784C4.16843 6.07127 4.47033 6.32085 4.83102 6.43169L9.91685 7.99002L16.4194 28.5317L14.096 30.43L13.9119 30.6142C13.3372 31.2765 13.0114 32.1184 12.9907 32.995C12.97 33.8717 13.2557 34.728 13.7985 35.4167C14.1846 35.8863 14.6753 36.2589 15.2313 36.5049C15.7872 36.7509 16.393 36.8634 17.0002 36.8334H40.6444C41.0201 36.8334 41.3804 36.6841 41.6461 36.4184C41.9118 36.1527 42.061 35.7924 42.061 35.4167C42.061 35.041 41.9118 34.6806 41.6461 34.415C41.3804 34.1493 41.0201 34 40.6444 34H16.7735C16.6104 33.9944 16.4514 33.9469 16.3121 33.862C16.1727 33.777 16.0575 33.6576 15.9778 33.5152C15.898 33.3728 15.8563 33.2122 15.8568 33.0489C15.8572 32.8857 15.8997 32.7254 15.9802 32.5834L19.3944 29.75H41.2677C41.5952 29.758 41.9153 29.6523 42.1736 29.4508C42.4319 29.2494 42.6124 28.9646 42.6844 28.645L47.1752 8.81169C47.2183 8.60049 47.2126 8.38224 47.1586 8.17357C47.1046 7.9649 47.0037 7.7713 46.8635 7.60752Z" fill="#F4F4F4"/>
</svg>
